<?xml version="1.0" encoding="UTF-8"?>
<svg version="1.1" xmlns="http://www.w3.org/2000/svg" width="135" height="38">
<path d="M0 0 C0.66 -0.33 1.32 -0.66 2 -1 C6.82911 -1.52137294 10.74166846 -1.73402673 15 0.75 C18.87716701 5.11181289 19.44699564 8.62768524 19.3125 14.34375 C18.52845811 21.0081061 15.10785175 26.82098425 10.66015625 31.7578125 C7.87993372 33.83807312 5.29900191 33.46186027 2 33 C2 28.20468248 3.04666754 27.5613715 6 24 C8.13809209 19.93762502 8.32563567 16.55889942 8 12 C7.1025173 9.16621868 7.1025173 9.16621868 6 7 C-1.47042743 10.45936605 -1.47042743 10.45936605 -6 17 C-6.71401232 20.19395026 -6.71401232 20.19395026 -7 23 C-6.74089844 22.42765625 -6.48179688 21.8553125 -6.21484375 21.265625 C-4.89481871 18.80384197 -3.38397875 16.86526565 -1.5625 14.75 C-0.96566406 14.04359375 -0.36882813 13.3371875 0.24609375 12.609375 C2 11 2 11 5 11 C6.53597454 14.07194908 6.2265038 16.60244293 6 20 C4.6875 23.375 4.6875 23.375 3 26 C2.01 26.33 1.02 26.66 0 27 C-0.33 25.68 -0.66 24.36 -1 23 C-1 25.97 -1 28.94 -1 32 C-4.13871188 33.56935594 -6.53855822 33.35201103 -10 33 C-15.34505917 29.02228155 -17.93811034 23.18566899 -20 17 C-21.1348679 6.67270208 -21.1348679 6.67270208 -17.9375 2.4375 C-11.70761518 -2.73197889 -7.24795483 -2.08839376 0 0 Z M-6 28 C-5 30 -5 30 -5 30 Z " fill="#47B95E" transform="translate(22,3)"/>
<path d="M0 0 C3.58542473 1.38833269 3.58542473 1.38833269 5.8125 0 C10.82609955 -0.54129128 14.61497394 -0.76641668 18.9375 2 C19.865625 2.99 19.865625 2.99 20.8125 4 C20.4825 4.66 20.1525 5.32 19.8125 6 C18.7915625 5.01 18.7915625 5.01 17.75 4 C14.08218859 1.5027667 12.17946448 1.61693294 7.8125 2 C6.719375 2.061875 5.62625 2.12375 4.5 2.1875 C3.613125 2.455625 2.72625 2.72375 1.8125 3 C0.78799761 5.18137797 0.78799761 5.18137797 -0.1875 8 C-3.81446461 12.98829181 -7.33530747 16.71621755 -13.1875 19 C-14.59182107 16.19135786 -14.47102778 13.7561645 -14.5625 10.625 C-14.63597656 8.91183594 -14.63597656 8.91183594 -14.7109375 7.1640625 C-14.1875 4 -14.1875 4 -11.80859375 1.640625 C-7.50495722 -1.05315643 -4.82352758 -1.27118236 0 0 Z " fill="#55BC68" transform="translate(18.1875,2)"/>
<path d="M0 0 C1.32 0 2.64 0 4 0 C4 0.99 4 1.98 4 3 C4.66 3 5.32 3 6 3 C6 2.01 6 1.02 6 0 C7.32 0 8.64 0 10 0 C10 3.63 10 7.26 10 11 C8.68 11 7.36 11 6 11 C6 9.68 6 8.36 6 7 C5.34 7 4.68 7 4 7 C4 8.32 4 9.64 4 11 C2.68 11 1.36 11 0 11 C0 7.37 0 3.74 0 0 Z " fill="#4DB462" transform="translate(44,16)"/>
<path d="M0 0 C1.32 0 2.64 0 4 0 C4 0.99 4 1.98 4 3 C4.66 3 5.32 3 6 3 C6 2.01 6 1.02 6 0 C7.32 0 8.64 0 10 0 C10 3.3 10 6.6 10 10 C8.68 10.33 7.36 10.66 6 11 C6 9.68 6 8.36 6 7 C5.34 7 4.68 7 4 7 C3.67 8.32 3.34 9.64 3 11 C2.01 11 1.02 11 0 11 C0 7.37 0 3.74 0 0 Z " fill="#54B469" transform="translate(101,16)"/>
<path d="M0 0 C2.97 0 5.94 0 9 0 C9.02688151 1.64574566 9.04634123 3.29161413 9.0625 4.9375 C9.07410156 5.85402344 9.08570313 6.77054688 9.09765625 7.71484375 C9 10 9 10 8 11 C5.32941149 11.14115161 2.67567762 11.04247107 0 11 C0 7.37 0 3.74 0 0 Z " fill="#49B765" transform="translate(125,16)"/>
<path d="M0 0 C2.97 0 5.94 0 9 0 C9.02688151 1.64574566 9.04634123 3.29161413 9.0625 4.9375 C9.07410156 5.85402344 9.08570312 6.77054688 9.09765625 7.71484375 C9 10 9 10 8 11 C5.32941149 11.14115161 2.67567762 11.04247107 0 11 C0 7.37 0 3.74 0 0 Z " fill="#43B25A" transform="translate(57,16)"/>
<path d="M0 0 C2.64 0 5.28 0 8 0 C8 3.63 8 7.26 8 11 C5.36 11 2.72 11 0 11 C0 7.37 0 3.74 0 0 Z " fill="#49B865" transform="translate(114,16)"/>
<path d="M0 0 C1.32 0 2.64 0 4 0 C4.50615298 1.26839526 5.00469099 2.53983102 5.5 3.8125 C5.7784375 4.52019531 6.056875 5.22789063 6.34375 5.95703125 C7 8 7 8 7 11 C5.68 11 4.36 11 3 11 C3 10.34 3 9.68 3 9 C2.01 9.66 1.02 10.32 0 11 C-0.99 11 -1.98 11 -3 11 C-2.53199289 6.94393835 -2.12046792 3.53411321 0 0 Z " fill="#43B45A" transform="translate(71,16)"/>
<path d="M0 0 C1.32 0 2.64 0 4 0 C4 2.31 4 4.62 4 7 C5.65 7 7.3 7 9 7 C9 8.32 9 9.64 9 11 C2.84765625 11.09765625 2.84765625 11.09765625 1 11 C0 10 0 10 -0.09765625 7.71484375 C-0.08605469 6.79832031 -0.07445313 5.88179687 -0.0625 4.9375 C-0.05347656 4.01839844 -0.04445313 3.09929688 -0.03515625 2.15234375 C-0.02355469 1.44207031 -0.01195313 0.73179688 0 0 Z " fill="#4FB465" transform="translate(80,16)"/>
<path d="M0 0 C-1.51270549 3.45308687 -3.54720642 5.95624379 -6.0625 8.75 C-7.13177734 9.94882812 -7.13177734 9.94882812 -8.22265625 11.171875 C-8.80917969 11.77515625 -9.39570313 12.3784375 -10 13 C-10.33 13 -10.66 13 -11 13 C-11.32470459 8.86001651 -11.4304413 6.66000999 -9.125 3.125 C-5.99631499 -0.00368501 -4.3125835 -0.11348904 0 0 Z " fill="#74CD7E" transform="translate(15,4)"/>
<path d="M0 0 C3.3 0 6.6 0 10 0 C9.67 0.99 9.34 1.98 9 3 C8.34 3 7.68 3 7 3 C7 5.31 7 7.62 7 10 C5.68 10.33 4.36 10.66 3 11 C3 8.36 3 5.72 3 3 C2.01 3 1.02 3 0 3 C0 2.01 0 1.02 0 0 Z " fill="#4CB664" transform="translate(89,16)"/>
<path d="M0 0 C0.66 0 1.32 0 2 0 C2 1.32 2 2.64 2 4 C3.65 4 5.3 4 7 4 C7.33 3.01 7.66 2.02 8 1 C8 3.97 8 6.94 8 10 C7.67 8.68 7.34 7.36 7 6 C5.68 6 4.36 6 3 6 C3 7.65 3 9.3 3 11 C2.01 11 1.02 11 0 11 C0 7.37 0 3.74 0 0 Z " fill="#4AB95F" transform="translate(101,16)"/>
<path d="M0 0 C0.66 0 1.32 0 2 0 C1.34 1.98 0.68 3.96 0 6 C-0.66 6 -1.32 6 -2 6 C-2.226875 6.556875 -2.45375 7.11375 -2.6875 7.6875 C-4.37550036 10.66159588 -6.46676517 12.72008865 -9 15 C-9.66 15 -10.32 15 -11 15 C-9.37278635 11.28570797 -7.05329514 8.38358949 -4.5 5.25 C-3.7059375 4.26515625 -2.911875 3.2803125 -2.09375 2.265625 C-1.4028125 1.51796875 -0.711875 0.7703125 0 0 Z " fill="#64C772" transform="translate(15,4)"/>
<path d="M0 0 C1.32 0 2.64 0 4 0 C4 0.99 4 1.98 4 3 C4.66 3 5.32 3 6 3 C6.33 2.01 6.66 1.02 7 0 C7 1.32 7 2.64 7 4 C5.02 4 3.04 4 1 4 C0.67 5.32 0.34 6.64 0 8 C0 5.36 0 2.72 0 0 Z " fill="#58B66A" transform="translate(44,16)"/>
<path d="M0 0 C1.32 0 2.64 0 4 0 C4.50615298 1.26839526 5.00469099 2.53983102 5.5 3.8125 C5.91765625 4.87404297 5.91765625 4.87404297 6.34375 5.95703125 C7 8 7 8 7 11 C6.01 11 5.02 11 4 11 C3.67 7.7 3.34 4.4 3 1 C1.68 1.99 0.36 2.98 -1 4 C-0.67 2.68 -0.34 1.36 0 0 Z " fill="#4FB865" transform="translate(71,16)"/>
<path d="M0 0 C0.33 0 0.66 0 1 0 C1.33 2.64 1.66 5.28 2 8 C2.66 7.34 3.32 6.68 4 6 C4.33 7.65 4.66 9.3 5 11 C3.35 11 1.7 11 0 11 C0 7.37 0 3.74 0 0 Z " fill="#53B66A" transform="translate(57,16)"/>
<path d="M0 0 C-0.556875 0.4125 -1.11375 0.825 -1.6875 1.25 C-4.16195956 3.12256399 -6.5835229 5.05339344 -9 7 C-9.33 6.01 -9.66 5.02 -10 4 C-6.58908673 0.88145073 -4.68377325 -0.53528837 0 0 Z " fill="#58BB6B" transform="translate(14,2)"/>
<path d="M0 0 C2.0625 0.4375 2.0625 0.4375 4 1 C2.37660195 2.70884005 0.70680947 4.37446717 -1 6 C-1.66 6 -2.32 6 -3 6 C-1.125 1.125 -1.125 1.125 0 0 Z " fill="#80D185" transform="translate(8,5)"/>
<path d="M0 0 C0.33 0.66 0.66 1.32 1 2 C1.66 2 2.32 2 3 2 C2.67 3.65 2.34 5.3 2 7 C1.01 7 0.02 7 -1 7 C-0.67 4.69 -0.34 2.38 0 0 Z " fill="#49B564" transform="translate(69,20)"/>
<path d="M0 0 C0.33 1.32 0.66 2.64 1 4 C-1.95664519 5.4783226 -4.74229737 5.06032783 -8 5 C-8.33 4.34 -8.66 3.68 -9 3 C-6.525 3.495 -6.525 3.495 -4 4 C-4 3.34 -4 2.68 -4 2 C-2.68 2.33 -1.36 2.66 0 3 C0 2.01 0 1.02 0 0 Z " fill="#55B56D" transform="translate(20,31)"/>
<path d="M0 0 C1.485 0.99 1.485 0.99 3 2 C2.67 3.65 2.34 5.3 2 7 C1.01 7 0.02 7 -1 7 C-0.67 4.69 -0.34 2.38 0 0 Z " fill="#45BB5C" transform="translate(45,20)"/>
</svg>
