<?xml version="1.0" encoding="UTF-8"?>
<svg version="1.1" xmlns="http://www.w3.org/2000/svg" width="38" height="37">
<path d="M0 0 C1.03318359 -0.03287109 2.06636719 -0.06574219 3.13085938 -0.09960938 C11.66445042 -0.15982073 11.66445042 -0.15982073 15.35546875 2.77734375 C18.01747441 5.81390297 18.59400997 7.52129771 19 11.5 C18.43455517 18.62460481 15.69880394 25.25915259 10.6875 30.4375 C7.97870665 31.79189668 5.67816732 31.50251451 2.6875 31.4375 C2.3575 30.4475 2.0275 29.4575 1.6875 28.4375 C2.491875 27.65375 3.29625 26.87 4.125 26.0625 C8.07500772 22.01615063 7.80070792 19.89037083 7.75 14.3125 C7.74097656 13.03117188 7.73195313 11.74984375 7.72265625 10.4296875 C7.71105469 9.44226562 7.69945313 8.45484375 7.6875 7.4375 C2.62787988 9.63573301 -1.42290921 11.50111574 -4.3125 16.4375 C-4.64842508 19.1479607 -4.64842508 19.1479607 -4.3125 21.4375 C-3.69375 20.07625 -3.69375 20.07625 -3.0625 18.6875 C-1.40368815 15.60684943 -0.01258129 13.63131605 2.6875 11.4375 C3.6775 11.4375 4.6675 11.4375 5.6875 11.4375 C6.9113892 13.88527839 6.703864 15.17140541 6.4375 17.875 C6.37046875 18.65746094 6.3034375 19.43992187 6.234375 20.24609375 C5.59014145 22.82762962 4.77902806 23.82743756 2.6875 25.4375 C2.0275 25.4375 1.3675 25.4375 0.6875 25.4375 C0.3575 27.0875 0.0275 28.7375 -0.3125 30.4375 C-5.30909597 31.7297231 -5.30909597 31.7297231 -8.3125 31.4375 C-13.24657789 28.04600522 -16.0439805 22.15640876 -17.3125 16.4375 C-17.84541608 12.01873751 -17.83013366 8.59601342 -16 4.5 C-11.58384018 -0.89752866 -6.42334365 0.03566323 0 0 Z M0.6875 18.4375 C1.6875 20.4375 1.6875 20.4375 1.6875 20.4375 Z " fill="#49B95F" transform="translate(18.3125,2.5625)"/>
<path d="M0 0 C1.54204102 0.00966797 1.54204102 0.00966797 3.11523438 0.01953125 C4.18708984 0.03628906 5.25894531 0.05304688 6.36328125 0.0703125 C7.44673828 0.07933594 8.53019531 0.08835938 9.64648438 0.09765625 C12.32313835 0.1212391 14.99934922 0.15415124 17.67578125 0.1953125 C17.67578125 0.5253125 17.67578125 0.8553125 17.67578125 1.1953125 C16.78375 1.27007812 15.89171875 1.34484375 14.97265625 1.421875 C7.89518086 1.92804166 7.89518086 1.92804166 2.36328125 5.7578125 C1.80640625 6.8921875 1.24953125 8.0265625 0.67578125 9.1953125 C-0.63697227 10.83354211 -1.99512039 12.43600715 -3.38671875 14.0078125 C-4.05832031 14.77738281 -4.72992188 15.54695313 -5.421875 16.33984375 C-7.32421875 18.1953125 -7.32421875 18.1953125 -10.32421875 19.1953125 C-12.00389693 14.15627795 -12.19486703 9.14390627 -10.01171875 4.2578125 C-6.9250375 0.48520209 -4.67025878 -0.05160507 0 0 Z " fill="#55BE6F" transform="translate(12.32421875,2.8046875)"/>
<path d="M0 0 C0 0.33 0 0.66 0 1 C-0.89203125 1.07476562 -1.7840625 1.14953125 -2.703125 1.2265625 C-9.78060039 1.73272916 -9.78060039 1.73272916 -15.3125 5.5625 C-15.869375 6.696875 -16.42625 7.83125 -17 9 C-18.38038944 10.65592706 -19.80021227 12.27947971 -21.25 13.875 C-21.95640625 14.65617187 -22.6628125 15.43734375 -23.390625 16.2421875 C-23.92171875 16.82226562 -24.4528125 17.40234375 -25 18 C-25.66 16.68 -26.32 15.36 -27 14 C-26.38125 13.938125 -25.7625 13.87625 -25.125 13.8125 C-24.073125 13.4103125 -24.073125 13.4103125 -23 13 C-22.29289322 11.35008418 -21.63437344 9.6792238 -21 8 C-19.43805771 5.887659 -17.74258362 3.97187094 -16 2 C-17.98 2 -19.96 2 -22 2 C-22 1.67 -22 1.34 -22 1 C-14.64479068 0.36338219 -7.38395674 -0.12515181 0 0 Z " fill="#5AC06C" transform="translate(30,3)"/>
<path d="M0 0 C2.171875 0.3671875 2.171875 0.3671875 4 1 C3.07161713 2.31896465 2.13194268 3.62998689 1.1875 4.9375 C0.40439453 6.03384766 0.40439453 6.03384766 -0.39453125 7.15234375 C-2 9 -2 9 -5 10 C-5.3125 7.8125 -5.3125 7.8125 -5 5 C-2.75 2.125 -2.75 2.125 0 0 Z " fill="#7CCF83" transform="translate(8,5)"/>
<path d="M0 0 C-1.20366862 2.7356105 -2.7175978 5.20904625 -4.375 7.6875 C-4.77460938 8.28949219 -5.17421875 8.89148438 -5.5859375 9.51171875 C-7.30187644 11.31772078 -8.57577643 11.61315581 -11 12 C-10.67 11.01 -10.34 10.02 -10 9 C-9.34 9 -8.68 9 -8 9 C-7.7525 8.2575 -7.505 7.515 -7.25 6.75 C-5.75805674 3.46772483 -3.93296349 0 0 0 Z " fill="#6CC977" transform="translate(14,5)"/>
<path d="M0 0 C0.90105469 0.01804688 1.80210938 0.03609375 2.73046875 0.0546875 C3.41753906 0.07789063 4.10460938 0.10109375 4.8125 0.125 C4.8125 0.455 4.8125 0.785 4.8125 1.125 C1.8425 1.125 -1.1275 1.125 -4.1875 1.125 C-4.8475 2.445 -5.5075 3.765 -6.1875 5.125 C-6.8475 4.795 -7.5075 4.465 -8.1875 4.125 C-8.1875 3.465 -8.1875 2.805 -8.1875 2.125 C-4.87379 -0.08414 -3.8428979 -0.09981553 0 0 Z " fill="#68BA79" transform="translate(12.1875,2.875)"/>
</svg>
